<?xml version="1.0" encoding="utf-8"?>
<!-- Generator: Adobe Illustrator 20.0.0, SVG Export Plug-In . SVG Version: 6.00 Build 0)  -->
<svg version="1.1" id="Capa_1" xmlns="http://www.w3.org/2000/svg" xmlns:xlink="http://www.w3.org/1999/xlink" x="0px" y="0px"
	 viewBox="0 0 271.7 88.3" style="enable-background:new 0 0 271.7 88.3;" xml:space="preserve">
<style type="text/css">
	.st0{fill:#FFFFFF;}
</style>
<g>
	<path class="st0" d="M85.1,30.5H71.6v46.8h11.5L83,56.4h3.5c10.6,0,17.1-3,17.1-13C103.6,33.2,95.8,30.5,85.1,30.5z M85.9,47.7H83
		v-8.6h2.9c2.4,0,6.5,0.3,6.5,4.1C92.4,47,88.6,47.7,85.9,47.7z"/>
	<g>
		<path class="st0" d="M75.1,12.4l7.1-6.1c-1.2-3.8-3.6-1.3-6.4-2.4l-7.3,6.4c0.4,0.3,0.8,0.8,1.4,1C71.5,11.7,74.1,11.1,75.1,12.4z
			"/>
		<path class="st0" d="M89.5,8.1c-1.2-0.8-2.7-2.5-4.3-2.4c-0.2,0-0.4,0-0.6,0l-0.9,0.1l-7.3,6.5c3.2-0.3,4.6,2.9,7.6,3.4l8.1-7
			C91,8.8,90.3,8.8,89.5,8.1z"/>
	</g>
	<g>
		<g>
			<path class="st0" d="M119.4,31.4c-0.8,0-1.8,0-3,0c0,0.1,0,0.3,0,0.7c0,0.3,0,0.8,0,1.3c0,0.6,0,1,0,1.4c0,0.4,0,0.6,0,0.8h0.8
				c0.3,0,0.6,0,0.9,0c0.3,0,0.7,0,1.1,0c0.4,0,0.7,0,1,0c0.2,0,0.4,0,0.5,0v0.9c-0.1,0-0.2,0-0.5,0c-0.2,0-0.5,0-0.9,0
				c-0.4,0-0.7,0-1.1,0c-0.3,0-0.7,0-1,0h-0.8c0,0.3,0,0.6,0,1c0,0.4,0,0.9,0,1.4c0,0.7,0,1.4,0,1.9c0,0.5,0,0.9,0,1.2
				c-0.1,0-0.3,0-0.5,0c-0.2,0-0.4,0-0.7,0c-0.3,0-0.5,0-0.7,0c-0.2,0-0.4,0-0.5,0l0-5.6c0-1.2,0-3.1,0-5.9c0.1,0,0.3,0,0.6,0
				c0.3,0,0.6,0,1,0c0.4,0,0.8,0,1.1,0c0.3,0,0.6,0,0.9,0c0.3,0,0.6,0,0.9,0c0.3,0,0.7,0,1,0c0.4,0,0.7,0,0.9,0c0.3,0,0.5,0,0.7,0v1
				C120.7,31.4,120.2,31.4,119.4,31.4z"/>
			<path class="st0" d="M132.8,41.9c-0.2,0-0.4,0-0.6,0c-0.2,0-0.4,0-0.6,0c-0.2,0-0.4,0-0.6,0c0-0.2,0-0.4,0-0.7c0-0.3,0-0.6,0-0.9
				c-1.3,1.2-2.7,1.8-4.2,1.8c-0.4,0-0.8,0-1.2-0.1c-0.4-0.1-0.7-0.2-1-0.4c-0.3-0.2-0.6-0.4-0.8-0.6c-0.2-0.2-0.4-0.5-0.5-0.8
				c-0.3-0.6-0.4-1.5-0.4-2.8v-2.5c0-1.9,0-3.4,0-4.4c0.7,0,1.5,0,2.4,0l0,7.5c0,1.7,0.9,2.6,2.6,2.6c0.7,0,1.3-0.2,2-0.5
				c0.3-0.1,0.5-0.3,0.7-0.4c0.2-0.1,0.4-0.3,0.5-0.4c0-0.3,0-0.7,0-1.3c0-0.6,0-1.4,0-2.3c0-0.7,0-2.4,0-5.1c0.8,0,1.6,0,2.4,0
				c0,1.8,0,3.1,0,4c0,0.9,0,1.3,0,1.3c0,2.2,0,4.2,0.1,6.1C133.2,41.9,133,41.9,132.8,41.9z"/>
			<path class="st0" d="M145.9,42c-0.2,0-0.3,0-0.4,0c-0.1,0-0.3,0-0.4,0c-0.1,0-0.3,0-0.4,0c-0.2-0.2-0.4-0.5-0.7-0.8
				c-0.3-0.3-0.6-0.7-1-1.2c-0.7-0.8-1.2-1.5-1.7-2c-0.4-0.5-0.8-0.9-1-1.2c-0.6-0.8-1.2-1.4-1.7-2c-0.5-0.6-1-1.1-1.3-1.4v1.3
				c0,0.4,0,0.7,0,1c0,0.3,0,0.4,0,0.6c0,0.9,0,1.8,0,2.7c0,0.9,0,1.9,0,3c-0.4,0-0.8,0-1.1,0c0-0.2,0-0.6,0-1.1c0-0.5,0-1.1,0-1.8
				v-2.8v-2.8c0-0.7,0-1.3,0-1.8c0-0.5,0-0.9,0-1.1c0.7,0,1.3,0,1.8,0c0.5,0.7,1.9,2.3,4.1,4.9c0.4,0.5,0.9,1,1.4,1.7
				c0.6,0.6,1.2,1.4,1.9,2.2c0-0.1,0-0.5,0-1c0-0.5,0-1.2,0-2.1c0-2.7,0-4.6,0-5.7c0.4,0,0.7,0,1.2,0v2.9c0,0.7,0,1.3,0,1.8
				c0,0.5,0,0.8,0,1.1c0,0.2,0,0.6,0,1.1c0,0.5,0,1.1,0,1.8v2.9C146.2,42,146,42,145.9,42z"/>
			<path class="st0" d="M158,40.4c-1.2,1-2.8,1.5-4.6,1.5c-0.2,0-0.3,0-0.5,0c-0.2,0-0.4,0-0.7,0h-1.2H150c-0.2,0-0.5,0-0.6,0
				c-0.2,0-0.3,0-0.4,0l0-5.6c0-0.3,0-0.6,0-1.1c0-0.5,0-1.1,0-1.8c0-0.7,0-1.3,0-1.8c0-0.5,0-0.8,0-1.1c0,0,0.1,0,0.2,0
				c0.1,0,0.3,0,0.6,0c0.2,0,0.5,0,0.7,0s0.4,0,0.6,0s0.4,0,0.6,0c0.2,0,0.4,0,0.7,0c0.2,0,0.4,0,0.6,0c0.2,0,0.4,0,0.5,0
				c1.8,0,3.4,0.5,4.6,1.5c1.3,1.1,1.9,2.5,1.9,4.2C160,38,159.3,39.4,158,40.4z M155.9,32.7c-0.9-0.8-2-1.2-3.2-1.2
				c-0.2,0-0.5,0-0.7,0c-0.2,0-0.5,0-0.7,0c0,0.1,0,0.2,0,0.5c0,0.3,0,0.7,0,1.3c0,0.6,0,1.1,0,1.5c0,0.4,0,0.8,0,1.1
				c0,0.4,0,0.8,0,1.3c0,0.5,0,1,0,1.6c0,0.6,0,1.1,0,1.4c0,0.3,0,0.5,0,0.6c0.1,0,0.1,0,0.3,0c0.1,0,0.3,0,0.5,0h0.6
				c0.2,0,0.3,0,0.4,0c0.1,0,0.1,0,0.2,0c1.3,0,2.3-0.5,3.1-1.4c0.8-0.9,1.1-2,1.1-3.3h0C157.3,34.8,156.9,33.6,155.9,32.7z"/>
			<path class="st0" d="M170.5,41.9c-0.2,0-0.5,0-0.7,0c-0.3,0-0.5,0-0.7,0c-0.2,0-0.4,0-0.5,0c-0.1-0.3-0.3-0.7-0.5-1.3
				c-0.2-0.6-0.5-1.3-0.8-2.3c-0.1,0-0.2,0-0.4,0c-0.2,0-0.4,0-0.7,0h-1.3c-0.6,0-1.2,0-1.6,0c-0.4,0-0.7,0-0.8,0
				c-0.1,0.4-0.3,0.9-0.6,1.5c-0.2,0.6-0.5,1.3-0.8,2.1c-0.1,0-0.2,0-0.3,0c-0.1,0-0.2,0-0.3,0c-0.1,0-0.2,0-0.3,0
				c-0.1,0-0.2,0-0.3,0c0.1-0.3,0.4-0.9,0.8-1.9c0.4-1,1-2.4,1.8-4.1c0.4-1,0.9-2,1.3-2.9c0.4-0.9,0.8-1.7,1.1-2.5c0.4,0,1,0,1.7,0
				c0.2,0.5,0.5,1.2,0.8,2.1c0.4,0.9,0.8,2,1.3,3.4c0.3,0.7,0.6,1.5,1,2.5c0.4,1,0.9,2.1,1.4,3.4C170.9,41.9,170.8,41.9,170.5,41.9z
				 M166.1,35.4c-0.3-0.8-0.7-1.8-1.2-2.9l-2,4.9h0.8c0.2,0,0.4,0,0.6,0c0.2,0,0.4,0,0.5,0c0.1,0,0.3,0,0.5,0c0.2,0,0.4,0,0.7,0h1
				C166.7,36.9,166.5,36.2,166.1,35.4z"/>
			<path class="st0" d="M177.8,42.2c-1.8,0-3.3-0.6-4.4-1.7c-1.2-1.1-1.7-2.6-1.7-4.3c0-1.7,0.6-3.2,1.8-4.3
				c1.2-1.1,2.7-1.6,4.4-1.6c1.8,0,3.3,0.5,4.5,1.6l-0.5,0.7c-1-0.8-2-1.2-3-1.2c-1.3,0-2.4,0.4-3.3,1.3c-0.9,0.9-1.4,2.1-1.4,3.5
				c0,1.3,0.4,2.4,1.3,3.3c0.8,0.9,1.9,1.3,3.1,1.3c1.4,0,2.5-0.4,3.5-1.1l0.5,0.7C181,41.6,179.5,42.2,177.8,42.2z"/>
			<path class="st0" d="M185.9,41.9c-0.2,0-0.4,0-0.6,0c-0.2,0-0.4,0-0.6,0c-0.2,0-0.4,0-0.6,0l0-5.9c0-0.3,0-0.7,0-1.2
				c0-0.5,0-1.1,0-1.9c0-0.7,0-1.3,0-1.7c0-0.4,0-0.7,0-0.8c0.2,0,0.4,0,0.6,0c0.2,0,0.4,0,0.6,0c0.2,0,0.4,0,0.6,0
				c0.2,0,0.4,0,0.6,0c0,0.2,0,0.5,0,0.9c0,0.4,0,1,0,1.7c0,0.8,0,1.4,0,1.9c0,0.5,0,0.9,0,1.1c0-0.3,0,1.7,0,5.9
				C186.3,41.9,186.1,41.9,185.9,41.9z"/>
			<path class="st0" d="M199.5,40.5c-1.2,1.1-2.8,1.7-4.7,1.7c-1.9,0-3.5-0.6-4.7-1.7c-1.2-1.1-1.8-2.6-1.8-4.3
				c0-1.7,0.6-3.1,1.8-4.3c1.2-1.1,2.8-1.7,4.7-1.7c1.9,0,3.5,0.6,4.7,1.7c1.2,1.1,1.9,2.6,1.9,4.3C201.4,38,200.8,39.4,199.5,40.5z
				 M197.5,32.5c-0.8-0.9-1.7-1.3-2.7-1.3c-1,0-1.9,0.4-2.7,1.3c-0.9,1-1.3,2.2-1.3,3.8c0,1.6,0.4,2.8,1.3,3.8
				c0.8,0.9,1.7,1.3,2.7,1.3c1,0,1.9-0.4,2.7-1.3c0.8-1,1.3-2.2,1.3-3.8C198.8,34.7,198.4,33.4,197.5,32.5z M196.3,28.4l-3.1,1.6
				l-0.5-0.4l2.5-2.5c0.3-0.3,0.5-0.4,0.7-0.4c0.3,0,0.5,0.1,0.7,0.3c0.2,0.2,0.3,0.4,0.3,0.6C196.8,27.9,196.7,28.2,196.3,28.4z"/>
			<path class="st0" d="M213,42c-0.2,0-0.3,0-0.4,0c-0.1,0-0.3,0-0.4,0c-0.1,0-0.3,0-0.4,0c-0.2-0.2-0.4-0.5-0.7-0.8
				c-0.3-0.3-0.6-0.7-1-1.2c-0.7-0.8-1.2-1.5-1.7-2c-0.4-0.5-0.8-0.9-1-1.2c-0.6-0.8-1.2-1.4-1.7-2c-0.5-0.6-1-1.1-1.3-1.4v1.3
				c0,0.4,0,0.7,0,1c0,0.3,0,0.4,0,0.6c0,0.9,0,1.8,0,2.7c0,0.9,0,1.9,0,3c-0.4,0-0.8,0-1.1,0c0-0.2,0-0.6,0-1.1c0-0.5,0-1.1,0-1.8
				v-2.8v-2.8c0-0.7,0-1.3,0-1.8c0-0.5,0-0.9,0-1.1c0.7,0,1.3,0,1.8,0c0.5,0.7,1.9,2.3,4.1,4.9c0.4,0.5,0.9,1,1.4,1.7
				c0.6,0.6,1.2,1.4,1.9,2.2c0-0.1,0-0.5,0-1c0-0.5,0-1.2,0-2.1c0-2.7,0-4.6,0-5.7c0.4,0,0.7,0,1.2,0v2.9c0,0.7,0,1.3,0,1.8
				c0,0.5,0,0.8,0,1.1c0,0.2,0,0.6,0,1.1c0,0.5,0,1.1,0,1.8v2.9C213.3,42,213.2,42,213,42z"/>
			<path class="st0" d="M227,35.6c-0.5,0.5-1.2,0.8-2,1c-0.4,0.1-1.3,0.1-2.7,0.1l0,5.2c-0.2,0-0.4,0-0.6,0c-0.2,0-0.4,0-0.6,0
				c-0.2,0-0.4,0-0.6,0c-0.2,0-0.4,0-0.6,0c0-0.1,0-0.4,0-0.8c0-0.4,0-1,0-1.8c0-0.8,0-1.4,0-2c0-0.5,0-1,0-1.3c0-0.5,0-1,0-1.6
				c0-0.6,0-1.2,0-1.9c0-0.7,0-1.2,0-1.6c0-0.3,0-0.5,0-0.5c0.4,0,0.7,0,1,0c0.3,0,0.5,0,0.8,0c0.2,0,0.4,0,0.6,0c0.2,0,0.4,0,0.7,0
				c0.2,0,0.5,0,0.7,0c0.2,0,0.4,0,0.6,0c1,0,1.8,0.3,2.5,0.8c0.8,0.6,1.1,1.4,1.1,2.3C227.9,34.4,227.6,35.1,227,35.6z M223.3,31.4
				h-0.9c0,0.2,0,0.5,0,1c0,0.4,0,1,0,1.6v1.8h0.8c0.7,0,1.2-0.2,1.6-0.5c0.5-0.4,0.8-1,0.8-1.8C225.6,32.1,224.8,31.4,223.3,31.4z"
				/>
			<path class="st0" d="M237.4,41.9c-0.2,0-0.5,0-0.7,0c-0.3,0-0.5,0-0.7,0c-0.2,0-0.4,0-0.5,0c-0.1-0.3-0.3-0.7-0.5-1.3
				c-0.2-0.6-0.5-1.3-0.8-2.3c-0.1,0-0.2,0-0.4,0c-0.2,0-0.4,0-0.7,0h-1.3c-0.6,0-1.2,0-1.6,0c-0.4,0-0.7,0-0.8,0
				c-0.1,0.4-0.3,0.9-0.6,1.5c-0.2,0.6-0.5,1.3-0.8,2.1c-0.1,0-0.2,0-0.3,0c-0.1,0-0.2,0-0.3,0c-0.1,0-0.2,0-0.3,0
				c-0.1,0-0.2,0-0.3,0c0.1-0.3,0.4-0.9,0.8-1.9c0.4-1,1-2.4,1.8-4.1c0.4-1,0.9-2,1.3-2.9c0.4-0.9,0.8-1.7,1.1-2.5c0.4,0,1,0,1.7,0
				c0.2,0.5,0.5,1.2,0.8,2.1c0.4,0.9,0.8,2,1.3,3.4c0.3,0.7,0.6,1.5,1,2.5c0.4,1,0.9,2.1,1.4,3.4C237.8,41.9,237.6,41.9,237.4,41.9z
				 M233,35.4c-0.3-0.8-0.7-1.8-1.2-2.9l-2,4.9h0.8c0.2,0,0.4,0,0.6,0c0.2,0,0.4,0,0.5,0c0.1,0,0.3,0,0.5,0c0.2,0,0.4,0,0.6,0h1
				C233.6,36.9,233.3,36.2,233,35.4z"/>
			<path class="st0" d="M247.6,41.9c-0.2,0-0.5,0-0.7,0c-0.2,0-0.5,0-0.7,0c-0.2,0-0.4,0-0.7,0c-0.5-0.7-1-1.5-1.6-2.4
				c-0.6-0.9-1.3-1.9-2-2.9h-0.4l0.1,5.3c-0.2,0-0.4,0-0.6,0c-0.2,0-0.4,0-0.6,0c-0.2,0-0.4,0-0.6,0c-0.2,0-0.4,0-0.6,0
				c0-0.1,0-0.3,0-0.8c0-0.4,0-1.1,0-1.9c0-0.8,0-1.5,0-2c0-0.5,0-0.9,0-1.2c0-0.3,0-0.7,0-1.2c0-0.5,0-1.1,0-1.8c0-0.7,0-1.3,0-1.7
				c0-0.4,0-0.7,0-0.8c0.4,0,0.8,0,1.1,0c0.3,0,0.6,0,0.8,0c0.1,0,0.2,0,0.3,0c0.2,0,0.4,0,0.6,0c0.2,0,0.5,0,0.6,0
				c0.2,0,0.3,0,0.4,0c1.4,0,2.3,0.1,2.8,0.4c0.9,0.5,1.3,1.2,1.3,2.1c0,0.9-0.4,1.7-1.1,2.3c-0.6,0.5-1.2,0.8-1.9,1
				c0.5,0.6,1,1.4,1.7,2.4c0.7,0.9,1.5,2,2.4,3.2C248.1,41.9,247.9,41.9,247.6,41.9z M242.5,31.4c-0.2,0-0.4,0-0.5,0
				c-0.1,0-0.2,0-0.3,0c0,0.3,0,0.8,0,1.5s0,1.7,0,2.8c0.1,0,0.2,0,0.4,0c0.1,0,0.2,0,0.3,0c0.8,0,1.5-0.2,2-0.6
				c0.5-0.4,0.7-1,0.7-1.7C244.9,32.1,244.1,31.4,242.5,31.4z"/>
			<path class="st0" d="M259.1,41.9c-0.2,0-0.5,0-0.7,0c-0.3,0-0.5,0-0.7,0c-0.2,0-0.4,0-0.5,0c-0.1-0.3-0.3-0.7-0.5-1.3
				c-0.2-0.6-0.5-1.3-0.8-2.3c-0.1,0-0.2,0-0.4,0c-0.2,0-0.4,0-0.7,0h-1.3c-0.6,0-1.2,0-1.6,0c-0.4,0-0.7,0-0.8,0
				c-0.1,0.4-0.3,0.9-0.6,1.5c-0.2,0.6-0.5,1.3-0.8,2.1c-0.1,0-0.2,0-0.3,0c-0.1,0-0.2,0-0.3,0c-0.1,0-0.2,0-0.3,0
				c-0.1,0-0.2,0-0.3,0c0.1-0.3,0.4-0.9,0.8-1.9c0.4-1,1-2.4,1.8-4.1c0.4-1,0.9-2,1.3-2.9c0.4-0.9,0.8-1.7,1.1-2.5c0.4,0,1,0,1.7,0
				c0.2,0.5,0.5,1.2,0.8,2.1c0.4,0.9,0.8,2,1.3,3.4c0.3,0.7,0.6,1.5,1,2.5c0.4,1,0.9,2.1,1.4,3.4C259.5,41.9,259.3,41.9,259.1,41.9z
				 M254.7,35.4c-0.3-0.8-0.7-1.8-1.2-2.9l-2,4.9h0.8c0.2,0,0.4,0,0.6,0c0.2,0,0.4,0,0.5,0c0.1,0,0.3,0,0.5,0c0.2,0,0.4,0,0.7,0h1
				C255.3,36.9,255,36.2,254.7,35.4z"/>
		</g>
		<g>
			<path class="st0" d="M119.4,59.5c-0.6,0-1.2,0-1.9,0c-0.7,0-1.4,0-2,0c-0.6,0-1.1,0-1.5,0c0-0.1,0-0.4,0-0.8c0-0.5,0-1.1,0-1.9
				c0-0.8,0-1.4,0-2c0-0.5,0-0.9,0-1.2c0-0.3,0-0.7,0-1.3c0-0.5,0-1.2,0-2c0-0.8,0-1.4,0-1.8c0-0.4,0-0.6,0-0.6c0.2,0,0.4,0,0.6,0
				c0.2,0,0.4,0,0.7,0c0.2,0,0.4,0,0.6,0c0.2,0,0.4,0,0.5,0c0,0.1,0,0.3,0,0.7c0,0.4,0,1,0,1.7c0,0.8,0,1.4,0,1.9c0,0.5,0,0.9,0,1.2
				c0,0.2,0,0.4,0,0.9c0,0.4,0,1,0,1.6c0,0.7,0,1.2,0,1.6c0,0.4,0,0.7,0,0.8c1,0,1.9,0,2.7,0c0.8,0,1.4,0,1.9,0v1
				C120.4,59.5,119.9,59.5,119.4,59.5z"/>
			<path class="st0" d="M135.4,59.5c-0.2,0-0.5,0-0.7,0c-0.3,0-0.5,0-0.7,0c-0.2,0-0.4,0-0.5,0c-0.1-0.3-0.3-0.7-0.5-1.3
				c-0.2-0.6-0.5-1.3-0.8-2.3c-0.1,0-0.2,0-0.4,0c-0.2,0-0.4,0-0.7,0h-1.3c-0.6,0-1.2,0-1.6,0c-0.4,0-0.7,0-0.8,0
				c-0.1,0.4-0.3,0.9-0.6,1.5c-0.2,0.6-0.5,1.3-0.8,2.1c-0.1,0-0.2,0-0.3,0c-0.1,0-0.2,0-0.3,0c-0.1,0-0.2,0-0.3,0
				c-0.1,0-0.2,0-0.3,0c0.1-0.3,0.4-0.9,0.8-1.9c0.4-1,1-2.4,1.8-4.1c0.4-1,0.9-2,1.3-2.9c0.4-0.9,0.8-1.7,1.1-2.5c0.4,0,1,0,1.7,0
				c0.2,0.5,0.5,1.2,0.8,2.1c0.4,0.9,0.8,2,1.3,3.4c0.3,0.7,0.6,1.5,1,2.5c0.4,1,0.9,2.1,1.4,3.4C135.8,59.5,135.6,59.5,135.4,59.5z
				 M131,53c-0.3-0.8-0.7-1.8-1.2-2.9l-2,4.9h0.8c0.2,0,0.4,0,0.6,0c0.2,0,0.4,0,0.5,0c0.1,0,0.3,0,0.5,0c0.2,0,0.4,0,0.7,0h1
				C131.6,54.5,131.3,53.8,131,53z"/>
			<path class="st0" d="M154.1,59.5c-0.6,0-1.2,0-1.9,0c-0.7,0-1.4,0-2,0c-0.6,0-1.1,0-1.5,0c0-0.1,0-0.4,0-0.8c0-0.5,0-1.1,0-1.9
				c0-0.8,0-1.4,0-2c0-0.5,0-0.9,0-1.2c0-0.3,0-0.7,0-1.3c0-0.5,0-1.2,0-2c0-0.8,0-1.4,0-1.8c0-0.4,0-0.6,0-0.6c0.2,0,0.4,0,0.6,0
				c0.2,0,0.4,0,0.7,0c0.2,0,0.4,0,0.6,0c0.2,0,0.4,0,0.5,0c0,0.1,0,0.3,0,0.7c0,0.4,0,1,0,1.7c0,0.8,0,1.4,0,1.9c0,0.5,0,0.9,0,1.2
				c0,0.2,0,0.4,0,0.9c0,0.4,0,1,0,1.6c0,0.7,0,1.2,0,1.6c0,0.4,0,0.7,0,0.8c1,0,1.9,0,2.7,0c0.8,0,1.4,0,1.9,0v1
				C155.2,59.5,154.7,59.5,154.1,59.5z"/>
			<path class="st0" d="M162.6,59.5c-0.2,0-0.4,0-0.6,0c-0.2,0-0.4,0-0.6,0c-0.2,0-0.4,0-0.6,0l0-5.9c0-0.3,0-0.7,0-1.2
				c0-0.5,0-1.1,0-1.9c0-0.7,0-1.3,0-1.7c0-0.4,0-0.7,0-0.8c0.2,0,0.4,0,0.6,0c0.2,0,0.4,0,0.6,0c0.2,0,0.4,0,0.6,0
				c0.2,0,0.4,0,0.6,0c0,0.2,0,0.5,0,0.9c0,0.4,0,1,0,1.7c0,0.8,0,1.4,0,1.9c0,0.5,0,0.9,0,1.1c0-0.3,0,1.7,0,5.9
				C163,59.5,162.8,59.5,162.6,59.5z"/>
			<path class="st0" d="M177.5,57.8c-0.3,0.5-0.7,0.8-1.1,1.1c-0.8,0.4-2,0.7-3.6,0.6l-1.8,0c-0.4,0-0.7,0-0.9,0c-0.2,0-0.4,0-0.6,0
				v-0.6c0-0.4,0-1,0-1.8c0-0.8,0-1.5,0-2.1c0-0.6,0-1,0-1.4c0-0.4,0-0.9,0-1.5c0-0.6,0-1.3,0-2c0-0.6,0-1.1,0-1.5
				c0-0.3,0-0.5,0-0.6c0.1,0,0.3,0,0.5,0c0.2,0,0.5,0,0.8,0c0.1,0,0.3,0,0.5,0c0.2,0,0.5,0,0.7,0c0.3,0,0.5,0,0.7,0
				c0.2,0,0.4,0,0.5,0c0.4,0,0.7,0,0.9,0c0.3,0,0.5,0.1,0.7,0.1c0.5,0.1,1,0.3,1.5,0.7c0.6,0.5,0.9,1.1,0.9,1.9c0,0.3-0.1,0.7-0.2,1
				c-0.1,0.3-0.3,0.6-0.6,0.8c-0.3,0.2-0.6,0.4-0.9,0.5c-0.4,0.1-0.8,0.2-1.2,0.2v0c1,0,1.8,0.3,2.5,0.9c0.7,0.6,1,1.2,1,2.1
				C177.9,56.8,177.8,57.3,177.5,57.8z M174.2,49.3c-0.4-0.2-0.9-0.3-1.5-0.3h-0.5c-0.1,0-0.2,0-0.3,0c-0.1,0-0.1,0-0.1,0v4h0.4
				c1.9,0,2.9-0.7,2.9-2.1C175,50.2,174.7,49.7,174.2,49.3z M175.3,55.1c-0.2-0.4-0.4-0.6-0.7-0.8c-0.5-0.3-1.2-0.4-2.1-0.4h-0.6
				c0,1.1,0,2.1,0,2.8c0,0.8,0,1.4,0,1.8c0.2,0,0.6,0,1.2,0c0.7,0,1.2-0.1,1.6-0.4c0.6-0.5,1-1.1,1-1.9
				C175.6,55.8,175.5,55.4,175.3,55.1z"/>
			<path class="st0" d="M189.1,59.5c-0.6,0-1.2,0-1.7,0c-0.4,0-0.9,0-1.5,0c-0.6,0-1.3,0-2.1,0l0-5.6c0-0.2,0-0.6,0-1.1
				c0-0.5,0-1.1,0-1.8c0-0.7,0-1.3,0-1.8c0-0.5,0-0.9,0-1.2c0.6,0,1.1,0,1.6,0c0.5,0,1,0,1.5,0c0.5,0,1.1,0,1.8,0c0.7,0,1.4,0,2.3,0
				v1c-0.4,0-1.1,0-1.9,0c-0.8,0-1.8,0-3,0c0,0.8,0,1.6,0,2.3s0,1.4,0,2h0.8c0.5,0,1,0,1.6,0c0.6,0,1.3,0,2,0v0.9c-0.7,0-1.4,0-2,0
				c-0.6,0-1.1,0-1.7,0h-0.8c0,0.1,0,0.3,0,0.7c0,0.4,0,0.8,0,1.5c0,0.6,0,1.1,0,1.5c0,0.4,0,0.7,0,0.8h1.3c0.3,0,0.7,0,1,0
				c0.4,0,0.8,0,1.2,0c0.4,0,0.7,0,1,0c0.2,0,0.4,0,0.5,0v1C190.4,59.5,189.7,59.5,189.1,59.5z"/>
			<path class="st0" d="M205,59.5c-0.2,0-0.5,0-0.7,0c-0.2,0-0.5,0-0.7,0c-0.2,0-0.4,0-0.7,0c-0.5-0.7-1-1.5-1.6-2.4
				c-0.6-0.9-1.3-1.9-2-2.9h-0.4l0.1,5.3c-0.2,0-0.4,0-0.6,0c-0.2,0-0.4,0-0.6,0c-0.2,0-0.4,0-0.6,0c-0.2,0-0.4,0-0.6,0
				c0-0.1,0-0.3,0-0.8c0-0.4,0-1.1,0-1.9c0-0.8,0-1.5,0-2c0-0.5,0-0.9,0-1.2c0-0.3,0-0.7,0-1.2c0-0.5,0-1.1,0-1.8c0-0.7,0-1.3,0-1.7
				c0-0.4,0-0.7,0-0.8c0.4,0,0.8,0,1.1,0c0.3,0,0.6,0,0.8,0c0.1,0,0.2,0,0.3,0c0.2,0,0.4,0,0.6,0c0.2,0,0.5,0,0.6,0
				c0.2,0,0.3,0,0.4,0c1.4,0,2.3,0.1,2.8,0.4c0.9,0.5,1.3,1.2,1.3,2.1c0,0.9-0.4,1.7-1.1,2.3c-0.6,0.5-1.2,0.8-1.9,1
				c0.5,0.6,1,1.4,1.7,2.4c0.7,0.9,1.5,2,2.4,3.2C205.5,59.5,205.2,59.5,205,59.5z M199.8,49c-0.2,0-0.4,0-0.5,0c-0.1,0-0.2,0-0.3,0
				c0,0.3,0,0.8,0,1.5s0,1.7,0,2.8c0.1,0,0.2,0,0.4,0c0.1,0,0.2,0,0.3,0c0.8,0,1.5-0.2,2-0.6c0.5-0.4,0.7-1,0.7-1.7
				C202.3,49.6,201.5,49,199.8,49z"/>
			<path class="st0" d="M217.1,49c-0.6,0-1.3,0-2.2,0c0,0.1,0,0.4,0,0.8c0,0.4,0,0.9,0,1.6c0,0.7,0,1.2,0,1.6c0,0.4,0,0.7,0,0.9
				c0,0.3,0,0.7,0,1.1c0,0.5,0,1.1,0,1.8c0,0.7,0,1.3,0,1.7c0,0.4,0,0.7,0,0.9c-0.2,0-0.4,0-0.6,0c-0.2,0-0.4,0-0.6,0
				c-0.2,0-0.4,0-0.6,0s-0.4,0-0.6,0c0-0.2,0-0.5,0-0.9c0-0.4,0-1,0-1.7c0-0.7,0-1.3,0-1.8c0-0.5,0-0.9,0-1.1c0-0.2,0-0.4,0-0.9
				c0-0.4,0-1,0-1.6c0-0.7,0-1.2,0-1.6c0-0.4,0-0.7,0-0.8c-0.9,0-1.7,0-2.3,0c-0.6,0-1,0-1.3,0v-1c0.7,0,1.3,0,1.8,0
				c0.6,0,1.1,0,1.6,0h2.7c0.5,0,1,0,1.6,0c0.6,0,1.2,0,1.8,0v1C218.2,49,217.7,49,217.1,49z"/>
			<path class="st0" d="M231.3,59.5c-0.2,0-0.5,0-0.7,0c-0.3,0-0.5,0-0.7,0c-0.2,0-0.4,0-0.5,0c-0.1-0.3-0.3-0.7-0.5-1.3
				c-0.2-0.6-0.5-1.3-0.8-2.3c-0.1,0-0.2,0-0.4,0c-0.2,0-0.4,0-0.7,0h-1.3c-0.6,0-1.2,0-1.6,0c-0.4,0-0.7,0-0.8,0
				c-0.1,0.4-0.3,0.9-0.6,1.5c-0.2,0.6-0.5,1.3-0.8,2.1c-0.1,0-0.2,0-0.3,0c-0.1,0-0.2,0-0.3,0c-0.1,0-0.2,0-0.3,0
				c-0.1,0-0.2,0-0.3,0c0.1-0.3,0.4-0.9,0.8-1.9c0.4-1,1-2.4,1.8-4.1c0.4-1,0.9-2,1.3-2.9c0.4-0.9,0.8-1.7,1.1-2.5c0.4,0,1,0,1.7,0
				c0.2,0.5,0.5,1.2,0.8,2.1c0.4,0.9,0.8,2,1.3,3.4c0.3,0.7,0.6,1.5,1,2.5c0.4,1,0.9,2.1,1.4,3.4C231.7,59.5,231.6,59.5,231.3,59.5z
				 M226.9,53c-0.3-0.8-0.7-1.8-1.2-2.9l-2,4.9h0.8c0.2,0,0.4,0,0.6,0c0.2,0,0.4,0,0.5,0c0.1,0,0.3,0,0.5,0c0.2,0,0.4,0,0.7,0h1
				C227.5,54.5,227.3,53.8,226.9,53z"/>
			<path class="st0" d="M246,58c-1.2,1-2.8,1.5-4.6,1.5c-0.2,0-0.3,0-0.5,0c-0.2,0-0.4,0-0.7,0h-1.2H238c-0.2,0-0.5,0-0.6,0
				c-0.2,0-0.3,0-0.4,0l0-5.6c0-0.3,0-0.6,0-1.1c0-0.5,0-1.1,0-1.8c0-0.7,0-1.3,0-1.8c0-0.5,0-0.8,0-1.1c0,0,0.1,0,0.2,0
				c0.1,0,0.3,0,0.6,0c0.2,0,0.5,0,0.7,0c0.2,0,0.4,0,0.6,0c0.2,0,0.4,0,0.6,0c0.2,0,0.4,0,0.6,0c0.2,0,0.4,0,0.6,0
				c0.2,0,0.4,0,0.5,0c1.8,0,3.4,0.5,4.6,1.5c1.3,1.1,1.9,2.5,1.9,4.2C248,55.6,247.3,57,246,58z M243.9,50.3
				c-0.9-0.8-2-1.2-3.2-1.2c-0.2,0-0.5,0-0.7,0c-0.2,0-0.5,0-0.7,0c0,0.1,0,0.2,0,0.5c0,0.3,0,0.7,0,1.3c0,0.6,0,1.1,0,1.5
				c0,0.4,0,0.8,0,1.1c0,0.4,0,0.8,0,1.3c0,0.5,0,1,0,1.6c0,0.6,0,1.1,0,1.4c0,0.3,0,0.5,0,0.6c0.1,0,0.1,0,0.3,0c0.1,0,0.3,0,0.5,0
				h0.6c0.2,0,0.3,0,0.4,0c0.1,0,0.1,0,0.2,0c1.3,0,2.3-0.5,3.1-1.4c0.8-0.9,1.1-2,1.1-3.3h0C245.4,52.4,244.9,51.2,243.9,50.3z"/>
		</g>
		<g>
			<path class="st0" d="M123.5,75.6c-1.3,1-2.9,1.6-4.8,1.6c-0.2,0-0.4,0-0.6,0c-0.2,0-0.4,0-0.7,0h-1.2h-1.2c-0.3,0-0.5,0-0.7,0
				c-0.2,0-0.3,0-0.5,0l0-5.9c0-0.3,0-0.7,0-1.2c0-0.5,0-1.2,0-1.9c0-0.8,0-1.4,0-1.9c0-0.5,0-0.9,0-1.1c0,0,0.1,0,0.2,0
				c0.1,0,0.3,0,0.6,0c0.3,0,0.5,0,0.7,0c0.2,0,0.5,0,0.7,0c0.2,0,0.4,0,0.7,0c0.2,0,0.5,0,0.7,0c0.2,0,0.5,0,0.7,0
				c0.2,0,0.4,0,0.6,0c1.9,0,3.5,0.5,4.8,1.6c1.3,1.1,2,2.6,2,4.4C125.6,72.9,124.9,74.4,123.5,75.6z M121.3,67.4
				c-1-0.9-2.1-1.3-3.4-1.3c-0.3,0-0.5,0-0.8,0c-0.2,0-0.5,0-0.7,0c0,0.1,0,0.2,0,0.6c0,0.3,0,0.8,0,1.4c0,0.6,0,1.1,0,1.6
				c0,0.5,0,0.9,0,1.2c0,0.4,0,0.9,0,1.4c0,0.5,0,1.1,0,1.7c0,0.6,0,1.1,0,1.5c0,0.3,0,0.5,0,0.6c0.1,0,0.2,0,0.3,0
				c0.1,0,0.3,0,0.5,0h0.6c0.2,0,0.3,0,0.4,0c0.1,0,0.1,0,0.2,0c1.4,0,2.5-0.5,3.3-1.5c0.8-0.9,1.2-2.1,1.2-3.5h0
				C122.9,69.6,122.4,68.4,121.3,67.4z"/>
			<path class="st0" d="M138.4,77.1c-0.6,0-1.2,0-1.8,0c-0.4,0-1,0-1.6,0c-0.6,0-1.4,0-2.2,0l0-5.9c0-0.3,0-0.6,0-1.1
				c0-0.5,0-1.1,0-1.9c0-0.8,0-1.4,0-1.9c0-0.5,0-0.9,0-1.2c0.6,0,1.2,0,1.7,0c0.5,0,1.1,0,1.6,0c0.5,0,1.2,0,1.9,0
				c0.7,0,1.5,0,2.4,0v1c-0.5,0-1.1,0-2-0.1c-0.8,0-1.9,0-3.1,0c0,0.8,0,1.6,0,2.4c0,0.7,0,1.4,0,2.1h0.9c0.5,0,1.1,0,1.7,0
				c0.6,0,1.3,0,2.1,0v1c-0.8,0-1.5,0-2.1,0c-0.6,0-1.2,0-1.7,0h-0.9c0,0.1,0,0.4,0,0.7c0,0.4,0,0.9,0,1.5c0,0.6,0,1.2,0,1.6
				c0,0.4,0,0.7,0,0.9h1.3c0.4,0,0.7,0,1.1,0c0.4,0,0.8,0,1.2,0c0.4,0,0.8,0,1,0c0.3,0,0.4,0,0.5,0v1
				C139.8,77.1,139.1,77.1,138.4,77.1z"/>
			<path class="st0" d="M164.9,70.5c-0.5,0.5-1.2,0.8-2.1,1c-0.4,0.1-1.4,0.1-2.8,0.1l0.1,5.5c-0.2,0-0.4,0-0.6,0
				c-0.2,0-0.4,0-0.7,0c-0.2,0-0.4,0-0.6,0c-0.2,0-0.4,0-0.6,0c0-0.1,0-0.4,0-0.9c0-0.5,0-1.1,0-1.9c0-0.8,0-1.5,0-2.1
				c0-0.6,0-1,0-1.4c0-0.5,0-1.1,0-1.7c0-0.6,0-1.3,0-2c0-0.7,0-1.3,0-1.7c0-0.4,0-0.5,0-0.5c0.4,0,0.7,0,1,0c0.3,0,0.6,0,0.8,0
				c0.2,0,0.4,0,0.6,0c0.2,0,0.5,0,0.7,0c0.3,0,0.5,0,0.7,0c0.2,0,0.4,0,0.6,0c1,0,1.9,0.3,2.7,0.8c0.8,0.6,1.2,1.4,1.2,2.4
				C165.8,69.2,165.5,69.9,164.9,70.5z M161,66h-1c0,0.2,0,0.6,0,1c0,0.5,0,1,0,1.7v1.9h0.9c0.7,0,1.3-0.2,1.7-0.5
				c0.5-0.4,0.8-1,0.8-1.9C163.4,66.8,162.6,66,161,66z"/>
			<path class="st0" d="M181.5,77.1c-0.3,0-0.5,0-0.8,0c-0.2,0-0.5,0-0.7,0c-0.2,0-0.5,0-0.7,0c-0.5-0.8-1-1.6-1.6-2.5
				c-0.6-0.9-1.3-2-2.1-3.1h-0.4l0.1,5.6c-0.2,0-0.4,0-0.6,0c-0.2,0-0.4,0-0.7,0c-0.2,0-0.5,0-0.7,0c-0.2,0-0.4,0-0.6,0
				c0-0.1,0-0.3,0-0.8c0-0.5,0-1.1,0-2c0-0.9,0-1.6,0-2.1c0-0.6,0-1,0-1.3c0-0.3,0-0.8,0-1.3c0-0.5,0-1.2,0-1.9c0-0.7,0-1.3,0-1.8
				c0-0.4,0-0.7,0-0.9c0.4,0,0.8,0,1.1,0c0.3,0,0.6,0,0.9,0c0.1,0,0.2,0,0.4,0c0.2,0,0.4,0,0.6,0c0.3,0,0.5,0,0.7,0
				c0.2,0,0.3,0,0.5,0c1.5,0,2.4,0.2,3,0.5c0.9,0.6,1.4,1.3,1.4,2.3c0,1-0.4,1.8-1.1,2.4c-0.6,0.5-1.3,0.9-2,1
				c0.5,0.7,1.1,1.5,1.8,2.5c0.7,1,1.5,2.1,2.5,3.4C182.1,77.1,181.8,77.1,181.5,77.1z M176.1,66c-0.2,0-0.4,0-0.5,0
				c-0.1,0-0.3,0-0.4,0c0,0.3,0,0.9,0,1.6c0,0.8,0,1.8,0,3c0.1,0,0.3,0,0.4,0c0.1,0,0.2,0,0.3,0c0.9,0,1.6-0.2,2.1-0.6
				c0.5-0.4,0.8-1,0.8-1.8C178.7,66.7,177.8,66,176.1,66z"/>
			<path class="st0" d="M194.7,77.1c-0.6,0-1.2,0-1.8,0c-0.4,0-1,0-1.6,0c-0.6,0-1.4,0-2.2,0l0-5.9c0-0.3,0-0.6,0-1.1
				c0-0.5,0-1.1,0-1.9c0-0.8,0-1.4,0-1.9c0-0.5,0-0.9,0-1.2c0.6,0,1.2,0,1.7,0c0.5,0,1.1,0,1.6,0c0.5,0,1.2,0,1.9,0
				c0.7,0,1.5,0,2.4,0v1c-0.5,0-1.1,0-2-0.1c-0.8,0-1.9,0-3.1,0c0,0.8,0,1.6,0,2.4c0,0.7,0,1.4,0,2.1h0.9c0.5,0,1.1,0,1.7,0
				c0.6,0,1.3,0,2.1,0v1c-0.8,0-1.5,0-2.1,0c-0.6,0-1.2,0-1.7,0h-0.9c0,0.1,0,0.4,0,0.7c0,0.4,0,0.9,0,1.5c0,0.6,0,1.2,0,1.6
				c0,0.4,0,0.7,0,0.9h1.3c0.4,0,0.7,0,1.1,0c0.4,0,0.8,0,1.2,0c0.4,0,0.8,0,1,0c0.3,0,0.4,0,0.5,0v1
				C196.1,77.1,195.4,77.1,194.7,77.1z"/>
			<path class="st0" d="M214.6,77.2c-0.2,0-0.3,0-0.5,0c-0.1,0-0.3,0-0.5,0c-0.1,0-0.3,0-0.5,0c-0.2-0.2-0.5-0.5-0.8-0.9
				c-0.3-0.4-0.7-0.8-1.1-1.3c-0.7-0.9-1.3-1.6-1.8-2.1c-0.5-0.6-0.8-1-1-1.3c-0.7-0.8-1.3-1.5-1.8-2.1c-0.5-0.6-1-1.1-1.4-1.5v1.4
				c0,0.4,0,0.8,0,1c0,0.3,0,0.5,0,0.6c0,0.9,0,1.9,0,2.8c0,1,0,2.1,0.1,3.2c-0.4,0-0.8,0-1.2,0c0-0.3,0-0.6,0-1.1
				c0-0.5,0-1.2,0-1.9v-3v-3c0-0.8,0-1.4,0-1.9c0-0.5,0-0.9,0-1.2c0.7,0,1.3,0,1.9,0c0.6,0.7,2,2.5,4.4,5.2c0.4,0.5,0.9,1.1,1.5,1.8
				c0.6,0.7,1.3,1.4,2,2.3c0-0.2,0-0.5,0-1c0-0.5,0-1.3,0-2.2c0-2.8,0-4.8,0-6c0.4,0,0.8,0,1.2,0v3c0,0.8,0,1.4,0,1.9
				c0,0.5,0,0.9,0,1.1c0,0.2,0,0.6,0,1.1c0,0.5,0,1.1,0,1.9v3.1C215,77.2,214.8,77.2,214.6,77.2z"/>
			<path class="st0" d="M229.1,76.6c-0.8,0.5-1.9,0.8-3.3,0.8c-1.1,0-2.2-0.3-3.3-0.9v-1.1c0.6,0.3,1,0.5,1.3,0.6
				c0.5,0.2,1.1,0.2,1.7,0.2c0.7,0,1.4-0.2,2-0.6c0.5-0.4,0.8-0.9,0.8-1.6c0-0.6-0.3-1-0.8-1.4c-0.4-0.2-0.8-0.4-1.3-0.7
				c-0.4-0.2-0.8-0.4-1.2-0.6c-0.7-0.4-1.2-0.8-1.6-1.2c-0.4-0.5-0.7-1.1-0.7-1.9c0-0.9,0.4-1.7,1.2-2.4c0.8-0.7,1.8-1,3.1-1
				c1.1,0,2.1,0.3,3.1,0.8l-0.2,0.9c-1-0.4-1.8-0.5-2.6-0.5c-0.3,0-0.6,0-0.9,0.1c-0.3,0.1-0.5,0.2-0.7,0.4
				c-0.2,0.2-0.4,0.4-0.5,0.6c-0.1,0.2-0.2,0.5-0.2,0.8c0,0.6,0.4,1.1,1.1,1.5c0.4,0.2,0.9,0.5,1.3,0.7c0.4,0.2,0.9,0.5,1.3,0.7
				c1.2,0.7,1.8,1.7,1.8,2.8C230.9,74.9,230.3,75.9,229.1,76.6z"/>
			<path class="st0" d="M248,77.1c-0.2,0-0.5,0-0.8,0c-0.3,0-0.5,0-0.7,0c-0.2,0-0.4,0-0.5,0c-0.1-0.3-0.3-0.7-0.5-1.4
				c-0.2-0.6-0.5-1.4-0.9-2.4c-0.1,0-0.2,0-0.4,0c-0.2,0-0.4,0-0.7,0h-1.4c-0.7,0-1.2,0-1.6,0c-0.4,0-0.7,0-0.9,0
				c-0.2,0.4-0.4,0.9-0.6,1.5c-0.3,0.6-0.5,1.3-0.9,2.2c-0.1,0-0.2,0-0.3,0c-0.1,0-0.2,0-0.3,0c-0.1,0-0.2,0-0.3,0
				c-0.1,0-0.2,0-0.3,0c0.1-0.3,0.4-0.9,0.9-2c0.5-1,1.1-2.5,1.8-4.3c0.5-1.1,0.9-2.1,1.3-3.1c0.4-1,0.8-1.8,1.2-2.7
				c0.4,0,1,0,1.8,0c0.2,0.5,0.5,1.3,0.9,2.3c0.4,1,0.8,2.1,1.4,3.5c0.3,0.7,0.6,1.6,1,2.6c0.4,1,0.9,2.2,1.5,3.6
				C248.4,77.1,248.2,77.1,248,77.1z M243.3,70.2c-0.3-0.9-0.8-1.9-1.2-3l-2.1,5.2h0.8c0.2,0,0.5,0,0.7,0c0.2,0,0.4,0,0.5,0
				c0.1,0,0.3,0,0.5,0c0.2,0,0.4,0,0.7,0h1C244,71.8,243.7,71.1,243.3,70.2z"/>
		</g>
	</g>
	<g>
		<g>
			<path class="st0" d="M61.3,28.1c0,0,0-0.3,0-0.7l0.8,0.1c0,0.3,0,0.6,0,0.6L61.3,28.1z"/>
		</g>
		<g>
			<path class="st0" d="M62.3,26.4l-0.8-0.2c0.1-0.4,0.2-0.8,0.3-1.2l0.8,0.3C62.4,25.7,62.3,26,62.3,26.4z M63,24.3l-0.7-0.4
				c0.2-0.4,0.4-0.7,0.6-1l0.7,0.5C63.4,23.7,63.2,24,63,24.3z M64.3,22.5L63.7,22c0.3-0.3,0.6-0.6,0.9-0.8l0.5,0.6
				C64.8,22,64.5,22.3,64.3,22.5z M66,21.2l-0.4-0.7c0.3-0.2,0.7-0.4,1.1-0.5l0.3,0.8C66.6,20.9,66.3,21,66,21.2z M68.1,20.4
				l-0.3-0.8c0.4-0.1,0.7-0.3,1-0.4l0.3,0.7C68.8,20.1,68.4,20.2,68.1,20.4z M70.2,19.4l-0.4-0.7c0.3-0.2,0.7-0.4,1-0.6l0.4,0.7
				C70.9,19,70.6,19.2,70.2,19.4z M72.2,18.1l-0.5-0.6c0.3-0.2,0.6-0.5,0.9-0.7l0.6,0.6C72.9,17.6,72.5,17.9,72.2,18.1z M74,16.5
				L73.4,16c0.3-0.3,0.5-0.6,0.7-0.9l0.7,0.5C74.5,15.9,74.3,16.2,74,16.5z"/>
		</g>
		<g>
			<path class="st0" d="M75.4,14.6l-0.7-0.4c0.2-0.3,0.3-0.5,0.3-0.5l0.7,0.3C75.7,14,75.6,14.2,75.4,14.6z"/>
		</g>
	</g>
	<polygon class="st0" points="6,77.3 17.4,77.3 17.4,56.4 34.6,56.4 34.6,47.7 17.4,47.7 17.4,39.1 34.5,39.1 34.5,30.5 6,30.5 	"/>
	<polygon class="st0" points="50.2,30.5 38.8,30.5 38.8,77.3 67.4,77.3 67.4,68.7 50.2,68.7 	"/>
	<rect x="56" y="30.5" class="st0" width="11.5" height="8.6"/>
	<rect x="56" y="41.3" class="st0" width="11.5" height="23.7"/>
	<g>
		<rect x="108.4" y="30.3" class="st0" width="0.8" height="46.8"/>
	</g>
</g>
</svg>
